# xmcd
#
# Track frame offsets: 
#        150
#        21160
#        43038
#        67223
#        83258
#        105273
#        122835
#        143520
#        160400
#        187175
#
# Disc length: 2757 seconds
#
# Revision: 2
# Processed by: cddbd v1.5.2PL0 Copyright (c) Steve Scherf et al.
# Submitted via: ExactAudioCopy v0.95a5
#
DISCID=800ac30a
DTITLE=Dina Carroll - k-So Close
DYEAR=1993
DGENRE=R&B
TTITLE0=Special Kind Of Love
TTITLE1=Hold On
TTITLE2=This Time
TTITLE3=Falling
TTITLE4=So Close
TTITLE5=Ain't No Man
TTITLE6=Express
TTITLE7=Heaven Sent
TTITLE8=You'll Never Know
TTITLE9=Don't Be A Stranger
EXTD=
EXTT0=
EXTT1=
EXTT2=
EXTT3=
EXTT4=
EXTT5=
EXTT6=
EXTT7=
EXTT8=
EXTT9=
PLAYORDER=
